<?xml version="1.0" encoding="UTF-8"?>
<svg xmlns="http://www.w3.org/2000/svg" xmlns:xlink="http://www.w3.org/1999/xlink" viewBox="0 0 19 19" width="19px" height="19px">
<g id="surface10493862">
<path style=" stroke:none;fill-rule:nonzero;fill:rgb(46.666667%,46.666667%,46.666667%);fill-opacity:1;" d="M 12.765625 0.792969 C 11.851562 0.84375 10.804688 1.351562 10.183594 2 C 9.617188 2.589844 9.175781 3.464844 9.355469 4.3125 C 10.347656 4.335938 11.34375 3.816406 11.941406 3.15625 C 12.496094 2.539062 12.917969 1.679688 12.765625 0.792969 Z M 12.820312 4.308594 C 11.386719 4.308594 10.789062 5.1875 9.796875 5.1875 C 8.777344 5.1875 7.84375 4.363281 6.609375 4.363281 C 4.929688 4.367188 2.375 5.921875 2.375 9.589844 C 2.375 12.921875 5.398438 16.625 7.101562 16.625 C 8.140625 16.636719 8.390625 15.972656 9.796875 15.964844 C 11.203125 15.957031 11.507812 16.632812 12.546875 16.625 C 13.714844 16.617188 14.628906 15.332031 15.292969 14.316406 C 15.773438 13.585938 15.96875 13.214844 16.339844 12.390625 C 13.589844 11.695312 13.042969 7.261719 16.339844 6.34375 C 15.714844 5.28125 13.898438 4.308594 12.820312 4.308594 Z M 12.820312 4.308594 "/>
</g>
</svg>
